:FULLY-SPECIFIED
:FORCE-ALL-JOINTS-BE-3DOF
:DEGREES
372
root 9.34234 17.0489 16.1266 6.29347 4.46569 -3.02807
lfemur -33.769 5.45102 -17.5636
ltibia 57.4413 0 0
lfoot -14.4113 11.4168 0
ltoes -1.50581 0 0
rfemur -12.9624 6.09884 28.9441
rtibia 28.7596 0 0
rfoot -18.8134 2.49969 0
rtoes -17.613 0 0
lowerback -5.75259 0.0600078 0.126048
upperback -0.850648 -0.00373734 2.70899
thorax 2.35907 -0.00853107 2.73242
lowerneck -20.136 -6.26257 -12.5902
upperneck 21.6536 -8.13241 12.7099
head 11.4629 -3.23944 5.50423
lclavicle -6.66777e-15 -4.10466e-14 0
lhumerus -46.4305 -18.3545 97.7982
lradius 28.6653 0 0
lwrist 12.0839 0 0
lhand -13.9049 -21.9612 0
lfingers 7.12502 0 0
lthumb 12.2204 7.65438 0
rclavicle -6.66777e-15 -4.10466e-14 0
rhumerus -34.1768 17.4829 -84.4869
rradius 43.4521 0 0
rwrist -22.0882 0 0
rhand -30.8076 -24.2768 0
rfingers 7.12502 0 0
rthumb -4.09728 -54.2169 0
373
root 9.35508 17.0409 16.2674 6.32846 4.30988 -3.15328
lfemur -34.0096 5.35279 -17.4307
ltibia 56.6026 0 0
lfoot -14.236 11.3841 0
ltoes -1.82049 0 0
rfemur -12.1012 6.08894 29.0426
rtibia 28.0221 0 0
rfoot -18.4563 2.61628 0
rtoes -17.5621 0 0
lowerback -5.83323 0.147532 0.219551
upperback -0.846061 0.101118 2.73231
thorax 2.4084 0.0445764 2.71777
lowerneck -20.1137 -6.26201 -12.6081
upperneck 21.6516 -8.13144 12.7218
head 11.4592 -3.23989 5.51223
lclavicle -6.5105e-15 -4.06975e-14 0
lhumerus -46.6332 -18.1142 97.7467
lradius 28.6101 0 0
lwrist 11.9302 0 0
lhand -13.7124 -21.9351 0
lfingers 7.12502 0 0
lthumb 12.4057 7.66595 0
rclavicle -6.5105e-15 -4.06975e-14 0
rhumerus -34.0822 17.3885 -84.5463
rradius 43.3094 0 0
rwrist -21.941 0 0
rhand -30.7685 -24.2716 0
rfingers 7.12502 0 0
rthumb -4.05959 -54.2123 0
374
root 9.36782 17.0329 16.4082 6.36345 4.15407 -3.27848
lfemur -34.2502 5.25455 -17.2978
ltibia 55.7638 0 0
lfoot -14.0607 11.3514 0
ltoes -2.13516 0 0
rfemur -11.24 6.07905 29.141
rtibia 27.2847 0 0
rfoot -18.0991 2.73287 0
rtoes -17.5113 0 0
lowerback -5.91388 0.235056 0.313054
upperback -0.841475 0.205974 2.75563
thorax 2.45774 0.0976839 2.70312
lowerneck -20.0915 -6.26146 -12.6261
upperneck 21.6495 -8.13048 12.7338
head 11.4554 -3.24034 5.52024
lclavicle -6.35323e-15 -4.03485e-14 0
lhumerus -46.8359 -17.8738 97.6953
lradius 28.5548 0 0
lwrist 11.7764 0 0
lhand -13.52 -21.9089 0
lfingers 7.12502 0 0
lthumb 12.5911 7.67752 0
rclavicle -6.35323e-15 -4.03485e-14 0
rhumerus -33.9875 17.2941 -84.6058
rradius 43.1667 0 0
rwrist -21.7938 0 0
rhand -30.7295 -24.2664 0
rfingers 7.12502 0 0
rthumb -4.02191 -54.2077 0
375
root 9.38056 17.025 16.549 6.39844 3.99826 -3.40369
lfemur -34.4908 5.15632 -17.1649
ltibia 54.925 0 0
lfoot -13.8854 11.3187 0
ltoes -2.44984 0 0
rfemur -10.3788 6.06916 29.2395
rtibia 26.5473 0 0
rfoot -17.742 2.84946 0
rtoes -17.4604 0 0
lowerback -5.99452 0.32258 0.406557
upperback -0.836889 0.31083 2.77896
thorax 2.50708 0.150791 2.68847
lowerneck -20.0692 -6.2609 -12.644
upperneck 21.6475 -8.12951 12.7457
head 11.4516 -3.24078 5.52825
lclavicle -6.19596e-15 -3.99994e-14 0
lhumerus -47.0386 -17.6334 97.6439
lradius 28.4996 0 0
lwrist 11.6227 0 0
lhand -13.3275 -21.8828 0
lfingers 7.12502 0 0
lthumb 12.7764 7.68909 0
rclavicle -6.19596e-15 -3.99994e-14 0
rhumerus -33.8929 17.1997 -84.6653
rradius 43.024 0 0
rwrist -21.6466 0 0
rhand -30.6905 -24.2612 0
rfingers 7.12502 0 0
rthumb -3.98423 -54.2031 0
376
root 9.3933 17.017 16.6898 6.43344 3.84245 -3.52889
lfemur -34.7314 5.05808 -17.0319
ltibia 54.0862 0 0
lfoot -13.7101 11.2859 0
ltoes -2.76451 0 0
rfemur -9.51754 6.05927 29.338
rtibia 25.8099 0 0
rfoot -17.3848 2.96606 0
rtoes -17.4096 0 0
lowerback -6.07516 0.410103 0.50006
upperback -0.832303 0.415686 2.80228
thorax 2.55642 0.203899 2.67382
lowerneck -20.047 -6.26034 -12.662
upperneck 21.6454 -8.12854 12.7576
head 11.4478 -3.24123 5.53626
lclavicle -6.03869e-15 -3.96503e-14 0
lhumerus -47.2413 -17.393 97.5925
lradius 28.4443 0 0
lwrist 11.469 0 0
lhand -13.1351 -21.8567 0
lfingers 7.12502 0 0
lthumb 12.9617 7.70065 0
rclavicle -6.03869e-15 -3.96503e-14 0
rhumerus -33.7982 17.1053 -84.7248
rradius 42.8813 0 0
rwrist -21.4995 0 0
rhand -30.6515 -24.2559 0
rfingers 7.12502 0 0
rthumb -3.94655 -54.1984 0
377
root 9.40604 17.009 16.8306 6.46843 3.68663 -3.6541
lfemur -34.972 4.95985 -16.899
ltibia 53.2475 0 0
lfoot -13.5348 11.2532 0
ltoes -3.07918 0 0
rfemur -8.65633 6.04937 29.4364
rtibia 25.0724 0 0
rfoot -17.0277 3.08265 0
rtoes -17.3587 0 0
lowerback -6.15581 0.497627 0.593563
upperback -0.827717 0.520542 2.8256
thorax 2.60576 0.257006 2.65917
lowerneck -20.0247 -6.25979 -12.6799
upperneck 21.6434 -8.12757 12.7696
head 11.444 -3.24168 5.54426
lclavicle -5.88142e-15 -3.93012e-14 0
lhumerus -47.444 -17.1526 97.541
lradius 28.3891 0 0
lwrist 11.3153 0 0
lhand -12.9426 -21.8305 0
lfingers 7.12502 0 0
lthumb 13.1471 7.71222 0
rclavicle -5.88142e-15 -3.93012e-14 0
rhumerus -33.7036 17.0109 -84.7842
rradius 42.7385 0 0
rwrist -21.3523 0 0
rhand -30.6125 -24.2507 0
rfingers 7.12502 0 0
rthumb -3.90887 -54.1938 0
378
root 9.41878 17.0011 16.9714 6.50342 3.53082 -3.7793
lfemur -35.2126 4.86161 -16.7661
ltibia 52.4087 0 0
lfoot -13.3595 11.2205 0
ltoes -3.39386 0 0
rfemur -7.79512 6.03948 29.5349
rtibia 24.335 0 0
rfoot -16.6706 3.19924 0
rtoes -17.3079 0 0
lowerback -6.23645 0.585151 0.687066
upperback -0.823131 0.625398 2.84892
thorax 2.65509 0.310114 2.64452
lowerneck -20.0025 -6.25923 -12.6979
upperneck 21.6413 -8.1266 12.7815
head 11.4403 -3.24213 5.55227
lclavicle -5.72415e-15 -3.89521e-14 0
lhumerus -47.6467 -16.9122 97.4896
lradius 28.3338 0 0
lwrist 11.1616 0 0
lhand -12.7501 -21.8044 0
lfingers 7.12502 0 0
lthumb 13.3324 7.72379 0
rclavicle -5.72415e-15 -3.89521e-14 0
rhumerus -33.6089 16.9165 -84.8437
rradius 42.5958 0 0
rwrist -21.2051 0 0
rhand -30.5734 -24.2455 0
rfingers 7.12502 0 0
rthumb -3.87119 -54.1892 0
379
root 9.43152 16.9931 17.1122 6.53842 3.37501 -3.90451
lfemur -35.4532 4.76338 -16.6331
ltibia 51.5699 0 0
lfoot -13.1841 11.1878 0
ltoes -3.70853 0 0
rfemur -6.93391 6.02959 29.6333
rtibia 23.5976 0 0
rfoot -16.3134 3.31583 0
rtoes -17.257 0 0
lowerback -6.3171 0.672675 0.780568
upperback -0.818544 0.730253 2.87224
thorax 2.70443 0.363221 2.62987
lowerneck -19.9802 -6.25868 -12.7158
upperneck 21.6393 -8.12563 12.7935
head 11.4365 -3.24258 5.56028
lclavicle -5.56688e-15 -3.8603e-14 0
lhumerus -47.8494 -16.6719 97.4382
lradius 28.2786 0 0
lwrist 11.0079 0 0
lhand -12.5577 -21.7782 0
lfingers 7.12502 0 0
lthumb 13.5178 7.73535 0
rclavicle -5.56688e-15 -3.8603e-14 0
rhumerus -33.5143 16.8221 -84.9032
rradius 42.4531 0 0
rwrist -21.058 0 0
rhand -30.5344 -24.2402 0
rfingers 7.12502 0 0
rthumb -3.8335 -54.1845 0
380
root 9.44426 16.9851 17.253 6.57341 3.2192 -4.02971
lfemur -35.6938 4.66515 -16.5002
ltibia 50.7311 0 0
lfoot -13.0088 11.155 0
ltoes -4.02321 0 0
rfemur -6.0727 6.0197 29.7318
rtibia 22.8602 0 0
rfoot -15.9563 3.43242 0
rtoes -17.2061 0 0
lowerback -6.39774 0.760199 0.874071
upperback -0.813958 0.835109 2.89556
thorax 2.75377 0.416329 2.61522
lowerneck -19.958 -6.25812 -12.7338
upperneck 21.6373 -8.12466 12.8054
head 11.4327 -3.24303 5.56829
lclavicle -5.40961e-15 -3.82539e-14 0
lhumerus -48.0521 -16.4315 97.3868
lradius 28.2233 0 0
lwrist 10.8542 0 0
lhand -12.3652 -21.7521 0
lfingers 7.12502 0 0
lthumb 13.7031 7.74692 0
rclavicle -5.40961e-15 -3.82539e-14 0
rhumerus -33.4197 16.7277 -84.9627
rradius 42.3104 0 0
rwrist -20.9108 0 0
rhand -30.4954 -24.235 0
rfingers 7.12502 0 0
rthumb -3.79582 -54.1799 0
381
root 9.457 16.9771 17.3937 6.6084 3.06339 -4.15492
lfemur -35.9344 4.56691 -16.3673
ltibia 49.8924 0 0
lfoot -12.8335 11.1223 0
ltoes -4.33788 0 0
rfemur -5.21149 6.00981 29.8303
rtibia 22.1227 0 0
rfoot -15.5991 3.54901 0
rtoes -17.1553 0 0
lowerback -6.47839 0.847723 0.967574
upperback -0.809372 0.939965 2.91888
thorax 2.80311 0.469436 2.60057
lowerneck -19.9357 -6.25756 -12.7517
upperneck 21.6352 -8.1237 12.8174
head 11.4289 -3.24348 5.5763
lclavicle -5.25234e-15 -3.79049e-14 0
lhumerus -48.2548 -16.1911 97.3353
lradius 28.1681 0 0
lwrist 10.7004 0 0
lhand -12.1728 -21.726 0
lfingers 7.12502 0 0
lthumb 13.8885 7.75849 0
rclavicle -5.25234e-15 -3.79049e-14 0
rhumerus -33.325 16.6333 -85.0222
rradius 42.1677 0 0
rwrist -20.7636 0 0
rhand -30.4564 -24.2298 0
rfingers 7.12502 0 0
rthumb -3.75814 -54.1753 0
382
root 9.46974 16.9692 17.5345 6.6434 2.90758 -4.28012
lfemur -36.175 4.46868 -16.2343
ltibia 49.0536 0 0
lfoot -12.6582 11.0896 0
ltoes -4.65255 0 0
rfemur -4.35028 5.99991 29.9287
rtibia 21.3853 0 0
rfoot -15.242 3.6656 0
rtoes -17.1044 0 0
lowerback -6.55903 0.935247 1.06108
upperback -0.804786 1.04482 2.9422
thorax 2.85245 0.522544 2.58592
lowerneck -19.9135 -6.25701 -12.7697
upperneck 21.6332 -8.12273 12.8293
head 11.4251 -3.24393 5.5843
lclavicle -5.09507e-15 -3.75558e-14 0
lhumerus -48.4575 -15.9507 97.2839
lradius 28.1128 0 0
lwrist 10.5467 0 0
lhand -11.9803 -21.6998 0
lfingers 7.12502 0 0
lthumb 14.0738 7.77005 0
rclavicle -5.09507e-15 -3.75558e-14 0
rhumerus -33.2304 16.5389 -85.0816
rradius 42.025 0 0
rwrist -20.6165 0 0
rhand -30.4174 -24.2245 0
rfingers 7.12502 0 0
rthumb -3.72046 -54.1706 0
383
root 9.48248 16.9612 17.6753 6.67839 2.75177 -4.40533
lfemur -36.4156 4.37044 -16.1014
ltibia 48.2148 0 0
lfoot -12.4829 11.0569 0
ltoes -4.96723 0 0
rfemur -3.48907 5.99002 30.0272
rtibia 20.6479 0 0
rfoot -14.8848 3.78219 0
rtoes -17.0536 0 0
lowerback -6.63967 1.02277 1.15458
upperback -0.8002 1.14968 2.96553
thorax 2.90178 0.575651 2.57127
lowerneck -19.8912 -6.25645 -12.7876
upperneck 21.6311 -8.12176 12.8412
head 11.4214 -3.24437 5.59231
lclavicle -4.9378e-15 -3.72067e-14 0
lhumerus -48.6602 -15.7103 97.2325
lradius 28.0576 0 0
lwrist 10.393 0 0
lhand -11.7879 -21.6737 0
lfingers 7.12502 0 0
lthumb 14.2591 7.78162 0
rclavicle -4.9378e-15 -3.72067e-14 0
rhumerus -33.1357 16.4445 -85.1411
rradius 41.8823 0 0
rwrist -20.4693 0 0
rhand -30.3783 -24.2193 0
rfingers 7.12502 0 0
rthumb -3.68278 -54.166 0
384
root 9.49522 16.9532 17.8161 6.71338 2.59596 -4.53054
lfemur -36.6562 4.27221 -15.9685
ltibia 47.376 0 0
lfoot -12.3076 11.0241 0
ltoes -5.2819 0 0
rfemur -2.62786 5.98013 30.1257
rtibia 19.9105 0 0
rfoot -14.5277 3.89878 0
rtoes -17.0027 0 0
lowerback -6.72032 1.11029 1.24808
upperback -0.795614 1.25453 2.98885
thorax 2.95112 0.628758 2.55662
lowerneck -19.869 -6.25589 -12.8055
upperneck 21.6291 -8.12079 12.8532
head 11.4176 -3.24482 5.60032
lclavicle -4.78053e-15 -3.68576e-14 0
lhumerus -48.8629 -15.4699 97.1811
lradius 28.0023 0 0
lwrist 10.2393 0 0
lhand -11.5954 -21.6476 0
lfingers 7.12502 0 0
lthumb 14.4445 7.79319 0
rclavicle -4.78053e-15 -3.68576e-14 0
rhumerus -33.0411 16.3501 -85.2006
rradius 41.7396 0 0
rwrist -20.3221 0 0
rhand -30.3393 -24.2141 0
rfingers 7.12502 0 0
rthumb -3.6451 -54.1614 0
